<svg xmlns="http://www.w3.org/2000/svg" fill="none" viewBox="0 0 951 1080"><defs/><g transform="matrix(7.675,0,0,7.675,-6374.125,-3647.375)" id="Rectangle"><g id="Group 1" transform="matrix(1,0,0,1,881,551.5)"><path fill="#4700d3" fill-opacity="0.5" d="M26.166,61.5L-26.166,61.5C-37.672,61.5,-47,52.172,-47,40.666L-47,-40.666C-47,-52.172,-37.672,-61.5,-26.166,-61.5L26.166,-61.5C37.672,-61.5,47,-52.172,47,-40.666L47,40.666C47,52.172,37.672,61.5,26.166,61.5Z"/></g></g><g id="Text"><g transform="translate(993.875,497.125)"><g transform="scale(7.675,7.675) translate(-960,-540)"><g id="Group 6"><path stroke-linejoin="miter" stroke-linecap="butt" stroke-width="7" stroke-opacity="1" stroke="#000000" d="M850,509L874.418,509"/></g><g id="Group 5"><path stroke-linejoin="miter" stroke-linecap="butt" stroke-width="7" stroke-opacity="1" stroke="#000000" d="M850,540L891,540"/></g><g id="Group 4"><path stroke-linejoin="miter" stroke-linecap="butt" stroke-width="7" stroke-opacity="1" stroke="#000000" d="M850,557.5L912,557.5"/></g><g id="Group 3"><path stroke-linejoin="miter" stroke-linecap="butt" stroke-width="7" stroke-opacity="1" stroke="#000000" d="M850,575.5L891,575.5"/></g><g id="Group 2"><path stroke-linejoin="miter" stroke-linecap="butt" stroke-width="7" stroke-opacity="1" stroke="#000000" d="M850,593.5L912,593.5"/></g><g id="Group 1"><path stroke-linejoin="miter" stroke-linecap="butt" stroke-width="7" stroke-opacity="1" stroke="#000000" d="M898,575.5L912,575.5"/></g></g></g></g><g opacity="1" id="Circle"><g transform="translate(698.388,255.363)"><g transform="scale(0,0)"><g transform="translate(-921.5,-508.5)"><g id="Group 1" transform="matrix(1,0,0,1,921.5,508.5)"><path fill="#ad39ff" fill-opacity="0.5" d="M31.5,0C31.5,-17.397,17.397,-31.5,0,-31.5C-17.397,-31.5,-31.5,-17.397,-31.5,0C-31.5,17.397,-17.397,31.5,0,31.5C17.397,31.5,31.5,17.397,31.5,0Z"/></g></g></g></g></g><g transform="matrix(7.675,0,0,7.675,-6374.125,-3647.375)" id="Tick"><g id="Group 1" transform="matrix(1,0,0,1,921.5,508.5)"><path stroke-linejoin="miter" stroke-linecap="butt" stroke-width="6" stroke-opacity="1" stroke="#000000" d="M-15,2.25L-6.5,10.75L15,-10.75"/></g></g></svg>